<?xml version="1.0" encoding="UTF-8"?>
<!DOCTYPE svg PUBLIC "-//W3C//DTD SVG 1.1//EN" "http://www.w3.org/Graphics/SVG/1.1/DTD/svg11.dtd">
<!-- Creator: CorelDRAW 2019 (64-Bit) -->
<svg xmlns="http://www.w3.org/2000/svg" xml:space="preserve" width="1452px" height="394px" version="1.1" style="shape-rendering:geometricPrecision; text-rendering:geometricPrecision; image-rendering:optimizeQuality; fill-rule:evenodd; clip-rule:evenodd"
viewBox="0 0 1554.4 422.27"
 xmlns:xlink="http://www.w3.org/1999/xlink">
 <defs>
  <style type="text/css">
   <![CDATA[
    .fil0 {fill:#025DA6}
    .fil1 {fill:#03BDEC}
    .fil2 {fill:#0D9753}
    .fil3 {fill:#15B8E9}
   ]]>
  </style>
 </defs>
 <g id="Capa_x0020_1">
  <metadata id="CorelCorpID_0Corel-Layer"/>
  <path class="fil0" d="M691.8 406.14c27.74,15.4 129.21,21.25 159.84,1.67 7.37,-11.36 21.14,-16.08 31.88,-25.9 29.34,-26.82 43.27,-73.29 44.84,-117.39 1.22,-33.88 -3.27,-68.21 -13.11,-97.02 -4.67,-13.67 -9.92,-25.23 -17.83,-34.97 -15.52,-19.11 -19.49,-13.92 -26.48,-29.74 -15.78,-13.79 -59.01,-17.06 -84.71,-14.66 3.53,33.21 69.92,100.76 86.27,143.07 25.1,64.91 -30.31,125.25 -93.41,124.75 -63.64,-0.51 -121.54,-58.11 -94.37,-125.85 18.2,-45.36 61.91,-82.99 86.81,-138.97 -37.23,8.85 -40.61,23.84 -61.66,42.62 -0.95,-64.23 11.13,-120.56 -25.35,-131.39l-48.01 1.89c-11.68,-18.02 -5.92,217.96 -5.87,230.01 0.16,45.67 -4.26,100.53 26.39,135.63 12.5,14.31 30.93,24.65 34.77,36.25z"/>
  <path class="fil0" d="M308.22 88.14c5.3,189.82 -45.03,331.83 136.28,331.86 78.31,0.01 127.68,-27.08 134.12,-102.02 5.03,-58.49 4.28,-171.81 0.41,-231.1 -94.18,-2.11 -79.95,4.33 -79.96,123.95 0,29.99 2.43,71.84 -0.76,100.45 -6.76,60.72 -103.43,61.53 -108.87,-4.16 -12.13,-146.57 43.78,-240.25 -81.22,-218.98z"/>
  <path class="fil0" d="M975.37 87c-2.29,68.08 -4.57,167.84 1.01,234.33 6.1,72.69 58.08,98.69 134,98.73 78.51,0.04 129.15,-27.15 134.38,-102.03 4.69,-67.06 2.44,-162.64 0.31,-231.03 -93.3,-3.29 -80.45,6.62 -80.44,120.49 0,83.57 16.76,147.64 -54.27,147.62 -70.64,-0.02 -54.29,-63.72 -54.29,-147.62 0,-119.38 11.15,-122.22 -80.7,-120.49z"/>
  <path class="fil0" d="M273.23 87.55c-52.66,-4.69 -125.24,-0.63 -180.08,-0.63 -29.6,0 -59.43,-4.34 -77.93,12.44 -40.24,36.49 9.23,81.42 34.49,111.34l119.18 144.26 -168.39 1.21 0.99 63.48c51.96,4.78 124.45,0.66 178.66,0.67 28.19,0 58.32,4.89 77.45,-11.53 17.59,-15.1 21.14,-40.76 7.92,-62.33 -14.1,-23.01 -151.16,-174.93 -161.08,-194.98l169.06 -1.3 -0.27 -62.63z"/>
  <path class="fil0" d="M1553.98 419.44l-0.04 -64.18 -167.42 -0.3c7.92,-16.91 100.86,-122.11 120.03,-146.11 12.16,-15.23 28.45,-32.37 39.13,-47.97 18.09,-26.45 5.06,-53.73 -12.03,-65.6 -19.69,-13.68 -52.7,-8.36 -78.62,-8.36 -57.96,0 -115.92,0.03 -174.13,0.03l0.21 64.33 169.57 0.6 -161.21 194.61c-15.5,24.18 -7.67,50.07 9.65,63.88 18.29,14.58 52.58,9.94 78.95,9.94 47.69,0.01 131.82,4.95 175.91,-0.87z"/>
  <path class="fil1" d="M691.62 266.7c3.64,105.69 177.78,95.03 173.7,-2.33 -23.58,-19.13 -58.55,-21.16 -86.42,-0.32 -34.25,25.61 -52.23,13.12 -87.28,2.65z"/>
  <path class="fil2" d="M691.8 406.14c-3.84,-11.6 -22.27,-21.94 -34.77,-36.25 -30.65,-35.1 -26.23,-89.96 -26.39,-135.63 -0.05,-12.05 -5.81,-248.03 5.87,-230.01l48.01 -1.89 -68.95 -2.36c-5.48,73.29 -0.6,166.05 -0.61,240.95 0,38.67 -1.9,75.96 13.19,107.31 12.65,26.3 31.79,50.38 63.65,57.88z"/>
  <path class="fil2" d="M851.64 407.81c118.35,-25.67 113.63,-271.98 19.3,-305.02 6.99,15.82 10.96,10.63 26.48,29.74 7.91,9.74 13.16,21.3 17.83,34.97 9.84,28.81 14.33,63.14 13.11,97.02 -1.57,44.1 -15.5,90.57 -44.84,117.39 -10.74,9.82 -24.51,14.54 -31.88,25.9z"/>
  <path class="fil3" d="M763.54 227.56c11.61,11.95 15.24,11.77 27.88,2.9 2.39,-16.48 -3.04,-22.31 -12.31,-31.79 -8.72,6.35 -15.32,13.69 -15.57,28.89z"/>
 </g>
</svg>
