<?xml version="1.0" encoding="UTF-8"?>
<!DOCTYPE svg PUBLIC "-//W3C//DTD SVG 1.1//EN" "http://www.w3.org/Graphics/SVG/1.1/DTD/svg11.dtd">
<!-- Creator: CorelDRAW 2019 (64-Bit) -->
<svg xmlns="http://www.w3.org/2000/svg" xml:space="preserve" width="933px" height="914px" version="1.1" style="shape-rendering:geometricPrecision; text-rendering:geometricPrecision; image-rendering:optimizeQuality; fill-rule:evenodd; clip-rule:evenodd"
viewBox="0 0 2393.13 2344.96"
 xmlns:xlink="http://www.w3.org/1999/xlink">
 <defs>
  <style type="text/css">
   <![CDATA[
    .fil0 {fill:#140EB0}
   ]]>
  </style>
 </defs>
 <g id="Capa_x0020_1">
  <metadata id="CorelCorpID_0Corel-Layer"/>
  <path class="fil0" d="M0 1145.57l0 62.77c0,449.32 308.33,868.5 691.75,1031.57 439.74,187.03 871.94,122.31 1241.54,-178.03 59.29,-48.17 97.55,-89 148.64,-145.63 62.87,-69.67 129.52,-181.78 169.17,-270.3 105.93,-236.51 130.85,-521.03 65.42,-779.97 -15.81,-62.54 -60,-203.51 -91.15,-245.89 -17.42,8.82 -119.1,114.16 -147.9,138.04 6.4,45.56 38.63,112.4 52.97,239.25 46.67,412.79 -119.38,790.42 -468.39,997.17 -297.73,176.38 -673.45,160.8 -972.61,-3.6 -72.65,-39.92 -125.68,-85.71 -178.36,-131.54 -25.37,-22.07 -127.61,-134.38 -141.28,-173.63 103.54,-95.35 211.82,-206.45 312.23,-298.53l189.89 -180.56c17.64,9.97 71.9,70.7 87.74,86.52 32.91,32.88 242.71,250.24 258.24,259.67l250.81 -261.65c21.08,-21.87 38.27,-44.59 59.83,-65.74l251.24 -262.67c26.2,-23.97 41.13,-41.63 63.54,-65.97l93.47 -98.76c10.69,-11.87 23.15,-20.76 33.91,-32.66 41.27,-45.64 84.73,-88.03 125.52,-133.53 18.31,-20.43 113.6,-121.15 130.56,-131.12 19.72,29.94 50.6,54.65 71.64,84.55 13.86,-14.65 45.82,-196.39 49.69,-215.24 14.67,-71.5 34.27,-147.87 45.02,-217.81l-429.98 95.31c21.51,27.84 74.38,65.97 83.17,87.32 -19.59,13.49 -285.61,295.62 -311.87,323.66 -80.72,86.17 -183.43,186.78 -258.62,271.06 -16.66,18.67 -35.04,35 -52.31,53.53 -34.09,36.61 -68.91,72.19 -103,108.85 -9.09,9.77 -15.16,17.25 -24.41,26.63l-82.89 83.26c-16.18,-10.16 -147.45,-150.58 -168.15,-170.64 -32.1,-31.08 -54.86,-54.1 -84.32,-84.35 -16.4,-16.83 -70.74,-76.64 -86.15,-83.83 -29.27,34.52 -147.49,141.21 -189.58,181.91 -13.61,13.16 -22.41,25.25 -36.62,37.84l-155.48 146.7c-13.02,11.83 -23.27,25.9 -36.52,37.93 -14.65,13.32 -26.85,23.93 -41.03,37.48l-114.43 109.26c-13.33,11.71 -24.72,30.43 -41.22,38.3 -16.49,-90.14 -39.96,-137.68 -39.96,-252.01l0 -54.92c0,-282.75 148.08,-522.94 280.97,-653.64 17.67,-17.39 40.28,-36.2 60.83,-52.98 161.85,-132.14 390.14,-219.18 604.59,-219.18 245.01,0 413.69,59.35 600.52,195.8l62.47 47.19c33.22,-37.58 121.52,-116.09 141.75,-148.88 -15.15,-22.5 -113.52,-99.38 -146.92,-120.41 -202.66,-127.6 -380.43,-193.47 -642.13,-193.47 -231.23,0 -486.5,77.89 -669.3,201.52 -67.99,45.98 -104.2,75.1 -159.99,130.46 -12.69,12.58 -22.78,23.54 -35.57,35.08 -16.05,14.48 -20.77,22.98 -35.48,38.99 -58.3,63.48 -133.72,185.23 -170.21,265.44 -61.59,135.41 -111.29,301.97 -111.29,474.08z"/>
 </g>
</svg>
